<?xml version="1.0" encoding="UTF-8" standalone="no"?>
<!-- Svg Vector Icons : http://www.onlinewebfonts.com/icon -->

<svg
   xmlns:dc="http://purl.org/dc/elements/1.1/"
   xmlns:cc="http://creativecommons.org/ns#"
   xmlns:rdf="http://www.w3.org/1999/02/22-rdf-syntax-ns#"
   xmlns:svg="http://www.w3.org/2000/svg"
   xmlns="http://www.w3.org/2000/svg"
   xmlns:sodipodi="http://sodipodi.sourceforge.net/DTD/sodipodi-0.dtd"
   xmlns:inkscape="http://www.inkscape.org/namespaces/inkscape"
   version="1.1"
   x="0px"
   y="0px"
   viewBox="0 0 1000 1000"
   enable-background="new 0 0 1000 1000"
   xml:space="preserve"
   id="svg10"
   sodipodi:docname="food-selected.svg"
   inkscape:version="0.92.5 (2060ec1f9f, 2020-04-08)"><defs
   id="defs14" /><sodipodi:namedview
   pagecolor="#ffffff"
   bordercolor="#666666"
   borderopacity="1"
   objecttolerance="10"
   gridtolerance="10"
   guidetolerance="10"
   inkscape:pageopacity="0"
   inkscape:pageshadow="2"
   inkscape:window-width="1920"
   inkscape:window-height="1055"
   id="namedview12"
   showgrid="false"
   inkscape:zoom="0.236"
   inkscape:cx="508.47458"
   inkscape:cy="500"
   inkscape:window-x="1080"
   inkscape:window-y="1080"
   inkscape:window-maximized="1"
   inkscape:current-layer="svg10" />
<metadata
   id="metadata2"> Svg Vector Icons : http://www.onlinewebfonts.com/icon <rdf:RDF><cc:Work
     rdf:about=""><dc:format>image/svg+xml</dc:format><dc:type
       rdf:resource="http://purl.org/dc/dcmitype/StillImage" /><dc:title></dc:title></cc:Work></rdf:RDF></metadata>
<g
   id="g8"
   style="fill:#0000ff"><path
     d="M894.6,506.3c-1.1,0-2.3-0.2-3.3-0.7c-0.7-0.3-1.4-0.7-1.9-1.3c0.4,1.8,1.5,3,2.8,3.7c0.7,0.4,1.6,0.6,2.4,0.6s1.7-0.2,2.4-0.6c1.3-0.7,2.4-1.9,2.8-3.7c-0.5,0.5-1.2,1-1.9,1.3C896.9,506,895.7,506.3,894.6,506.3z M911.3,490.1c-7.4-0.3-23.4-8.7-23.4-8.7h-0.3c0,0-15.5,8.4-23,8.7c-0.6,3.2,0.4,22.7,5.6,30.5c3.5,5.2,14.1,9.9,17.3,11.1c0,0,0.2,0.2,0.6,0c4.1-1.6,13.3-5.2,17.5-11.1C911.4,511.7,911.9,493.3,911.3,490.1z M875.7,505.4c0-1.2,0.5-2.3,1.3-3.1c0.8-0.8,1.9-1.3,3.2-1.3c1.2,0,2.4,0.5,3.2,1.3c0.8,0.8,1.3,1.9,1.3,3.1c0,0.9-0.3,1.8-0.8,2.5c-0.1-0.4-0.3-0.9-0.5-1.3c0.1-0.4,0.2-0.7,0.2-1.2c0-0.9-0.4-1.7-1-2.3c-0.6-0.6-1.5-1-2.4-1c-0.9,0-1.8,0.4-2.4,1c-0.6,0.6-1,1.4-1,2.3c0,0.9,0.4,1.7,1,2.3c0.6,0.5,1.3,0.9,2.2,1c0.1,0.3,0.1,0.6,0,0.8c0,0.1-0.1,0.2-0.1,0.3c-1.1-0.1-2.1-0.5-2.8-1.3C876.2,507.7,875.7,506.6,875.7,505.4z M902.5,494.9l-0.9,8.5c-0.3,3-1.9,5-3.9,6c-0.7,0.4-1.5,0.6-2.3,0.7l0,4.3c0,0.3,0,0.5,0,0.7c-0.2,2.7-1.3,4.9-3.1,6.4c-1.8,1.5-4.1,2.4-6.7,2.4c-0.3,0-0.5,0-0.8,0c-2.1-0.1-4.1-0.9-5.5-2c-1.4-1.1-2.3-2.7-2.3-4.4c0-3,1.4-4.6,2.7-6c1-1.2,1.9-2.1,0.8-4c-0.2,0-0.3,0.1-0.5,0.1c-1.2,0-2.2-1-2.2-2.2c0-1.2,1-2.2,2.2-2.2c1.2,0,2.2,1,2.2,2.2c0,0.4-0.1,0.8-0.3,1.2c1.8,2.9,0.6,4.3-1,6c-1,1.2-2.3,2.5-2.3,4.9c0,1.3,0.7,2.4,1.7,3.2c1.2,0.9,2.8,1.5,4.5,1.6c0.2,0,0.4,0,0.6,0c2.2,0,4.2-0.7,5.6-2c1.5-1.3,2.4-3.1,2.6-5.3c0-0.2,0-0.4,0-0.6v-4.3c-0.8-0.1-1.7-0.3-2.4-0.7c-2-1-3.6-3-3.9-6l-0.9-8.5c0-0.2,0-0.5,0.1-0.7c0.1-0.2,0.2-0.4,0.4-0.6c0.2-0.2,0.3-0.3,0.6-0.4c0.2-0.1,0.4-0.1,0.7-0.1h2c0.3-0.3,0.7-0.5,1.1-0.5c0.8,0,1.4,0.6,1.4,1.4c0,0.7-0.6,1.4-1.4,1.4c-0.5,0-0.9-0.2-1.1-0.5h-2c0,0,0,0,0,0v0l0.7,6.8c0.4,1.4,1.4,2.4,2.7,3c0.9,0.4,1.9,0.6,2.8,0.6c1,0,2-0.2,2.8-0.6c1.3-0.6,2.3-1.6,2.7-3l0.7-6.8v0c0,0,0,0,0,0h-2c-0.3,0.3-0.7,0.5-1.1,0.5c-0.8,0-1.4-0.6-1.4-1.4c0-0.7,0.6-1.4,1.4-1.4c0.5,0,0.9,0.2,1.1,0.5h2c0.2,0,0.5,0,0.7,0.1c0.2,0.1,0.4,0.2,0.6,0.4c0.2,0.2,0.3,0.4,0.4,0.6C902.5,494.5,902.5,494.7,902.5,494.9z"
     id="path4"
     style="fill:#0000ff" /><path
     d="M500,8.9C229.4,8.9,10,228.8,10,500c0,271.2,219.4,491.1,490,491.1c270.6,0,490-219.9,490-491.1C990,228.8,770.6,8.9,500,8.9L500,8.9z M426,496.7l18.6,242.1c0.4,2.8,0.6,5.6,0.6,8.5c0,30.3-24.5,54.9-54.8,54.9c-30.3,0-54.8-24.6-54.8-54.9c0-2.9,0.2-5.7,0.7-8.5l18.6-242c-65.1-12.5-101.4-57-101.4-79.1c0-62.7,27.4-192.2,27.4-192.2v-13.8c0-7.6,6.1-13.7,13.7-13.7c7.6,0,13.7,6.2,13.7,13.7v6.9v144.2c0,7.6,2,27.5,27.4,27.5c26.3,0,27.4-19.9,27.4-27.5V204.7l27.4-6.9l27.4,6.9v157.9c0,7.6,2,27.5,27.4,27.5c26.3,0,27.4-19.9,27.4-27.5V218.5v-6.9c0-7.6,6.1-13.7,13.7-13.7c7.6,0,13.7,6.2,13.7,13.7c0,5.2,0,13.8,0,13.8s27.4,130.8,27.4,192.2C527.4,440.8,490.1,484.3,426,496.7L426,496.7z M746.6,554.9c0,50.1-54.8,54.9-54.8,54.9v137.3h-2.3c1.5,4.3,2.3,8.9,2.3,13.7c0,22.7-18.4,41.2-41.1,41.2c-22.7,0-41.1-18.4-41.1-41.2c0-4.8,0.8-9.4,2.3-13.7h-2.3V252.8v-27.5c0-15.2,12.3-27.5,27.4-27.5c10,0,18.7,5.4,23.5,13.3c34.4,31.5,84.6,116.9,86.1,233.9h0V554.9L746.6,554.9z"
     id="path6"
     style="fill:#0000ff" /></g>
</svg>